<svg id="svg" version="1.1" xmlns="http://www.w3.org/2000/svg" xmlns:xlink="http://www.w3.org/1999/xlink" width="400" height="400" viewBox="0, 0, 400,400"><g id="svgg"><path id="path0" d="M94.000 71.052 C 77.825 73.177,71.666 74.867,60.600 80.217 C 54.751 83.046,53.156 83.978,46.800 88.284 C 20.662 105.991,5.193 142.835,10.193 175.474 C 12.111 187.996,17.929 203.916,23.032 210.607 C 23.565 211.305,24.000 211.996,24.000 212.144 C 24.000 212.291,24.935 213.714,26.078 215.306 C 33.381 225.476,42.602 233.876,54.400 241.104 C 58.918 243.872,68.081 247.920,73.559 249.568 C 79.728 251.425,79.200 247.810,79.202 288.160 C 79.203 316.673,79.302 322.817,79.811 326.000 C 83.099 346.558,98.860 362.790,119.692 367.075 C 124.620 368.089,252.134 368.388,259.000 367.402 C 266.458 366.330,278.047 362.048,280.000 359.642 C 280.110 359.506,281.280 358.597,282.600 357.622 C 291.087 351.349,297.427 341.974,300.383 331.325 C 302.063 325.270,302.373 322.355,302.388 312.460 C 302.403 302.041,302.352 302.189,307.147 298.639 C 309.046 297.233,312.071 294.939,313.868 293.541 C 317.445 290.760,320.353 288.514,331.500 279.918 C 332.985 278.773,336.450 276.080,339.200 273.934 C 341.950 271.788,345.332 269.169,346.715 268.116 C 348.098 267.062,349.808 265.735,350.515 265.166 C 352.421 263.633,361.424 256.680,364.326 254.498 C 365.715 253.454,367.875 251.777,369.126 250.771 C 370.377 249.765,372.570 248.079,374.000 247.024 L 376.600 245.107 380.400 245.350 C 382.490 245.483,387.080 245.613,390.600 245.637 L 397.000 245.680 397.118 242.840 C 397.218 240.408,397.339 240.000,397.960 240.000 C 398.565 240.000,398.728 239.543,398.942 237.232 C 399.333 233.024,399.954 233.303,390.682 233.516 C 383.776 233.674,382.222 233.597,380.000 232.988 C 375.683 231.804,374.189 231.778,372.833 232.860 C 372.185 233.377,371.005 234.250,370.211 234.800 C 369.417 235.350,368.162 236.250,367.423 236.800 C 366.684 237.350,365.657 238.106,365.140 238.479 C 364.623 238.853,362.850 240.152,361.200 241.366 C 359.550 242.581,356.896 244.525,355.302 245.687 C 353.708 246.849,352.062 248.070,351.644 248.400 C 351.226 248.730,349.509 249.990,347.829 251.200 C 346.149 252.410,343.557 254.300,342.070 255.400 C 340.582 256.500,338.867 257.760,338.257 258.200 C 337.648 258.640,336.298 259.630,335.258 260.400 C 334.219 261.170,332.240 262.610,330.861 263.600 C 329.482 264.590,328.023 265.670,327.619 266.000 C 327.214 266.330,325.503 267.590,323.815 268.800 C 322.128 270.010,319.516 271.945,318.011 273.100 C 316.506 274.255,315.167 275.200,315.037 275.200 C 314.907 275.200,314.459 275.515,314.043 275.900 C 313.627 276.285,311.917 277.590,310.243 278.800 C 307.620 280.697,303.307 283.836,300.600 285.821 C 300.160 286.143,299.260 286.822,298.600 287.330 C 294.635 290.378,292.278 290.820,289.565 289.024 C 286.703 287.131,285.756 284.031,287.182 281.234 C 287.974 279.683,288.503 279.187,292.683 276.074 C 299.661 270.877,306.361 265.936,307.529 265.124 C 308.261 264.616,309.161 263.927,309.529 263.593 C 309.898 263.260,311.280 262.270,312.600 261.395 C 313.920 260.520,315.180 259.612,315.400 259.379 C 315.620 259.145,316.661 258.334,317.714 257.577 C 318.766 256.820,320.231 255.750,320.969 255.200 C 321.706 254.650,322.706 253.930,323.191 253.600 C 324.206 252.909,328.983 249.365,332.868 246.422 C 334.336 245.310,335.641 244.400,335.768 244.400 C 335.896 244.400,336.341 244.085,336.757 243.700 C 337.173 243.315,338.896 242.010,340.585 240.800 C 342.274 239.590,344.589 237.865,345.728 236.966 C 346.868 236.067,348.880 234.584,350.200 233.669 C 351.520 232.755,354.130 230.845,356.000 229.426 C 359.396 226.847,360.712 225.884,363.406 224.000 C 364.193 223.450,365.918 222.156,367.239 221.124 C 370.843 218.310,372.714 218.006,377.813 219.407 C 385.181 221.432,390.672 221.627,397.098 220.092 L 399.995 219.400 399.998 216.100 C 400.000 213.445,399.884 212.800,399.405 212.800 C 399.078 212.800,398.358 212.125,397.806 211.300 C 397.254 210.475,396.397 209.235,395.901 208.543 C 395.406 207.852,394.138 206.052,393.084 204.543 C 392.031 203.035,390.191 200.450,388.995 198.800 C 387.800 197.150,386.522 195.260,386.155 194.600 C 385.789 193.940,384.819 192.590,384.000 191.600 C 383.181 190.610,382.211 189.260,381.845 188.600 C 381.478 187.940,380.202 186.050,379.008 184.400 C 377.815 182.750,375.823 179.924,374.583 178.119 C 371.225 173.233,370.788 173.088,368.389 176.073 C 364.605 180.783,361.800 188.825,361.262 196.509 C 360.843 202.485,358.967 204.574,352.590 206.165 C 351.936 206.328,350.860 206.714,350.200 207.023 C 349.045 207.564,346.190 208.605,342.400 209.866 C 341.410 210.196,339.880 210.793,339.000 211.194 C 338.120 211.594,336.770 212.047,336.000 212.200 C 335.230 212.353,334.240 212.705,333.800 212.981 C 333.360 213.258,332.100 213.764,331.000 214.106 C 329.900 214.448,327.560 215.295,325.800 215.988 C 322.125 217.434,317.890 218.956,315.000 219.868 C 313.900 220.215,312.808 220.651,312.573 220.838 C 312.338 221.024,311.078 221.531,309.773 221.963 C 307.615 222.678,304.480 223.802,298.400 226.040 C 293.237 227.940,292.638 228.065,289.703 227.862 C 284.973 227.535,281.027 224.762,278.777 220.183 C 277.814 218.221,277.802 218.055,277.665 204.800 C 277.453 184.080,274.886 178.294,263.255 172.314 C 258.141 169.685,256.691 169.600,216.994 169.600 L 181.228 169.600 180.767 170.462 C 180.287 171.358,180.541 177.538,181.207 181.191 C 182.559 188.612,183.268 192.097,183.812 194.000 C 185.215 198.911,186.962 204.325,187.814 206.400 C 188.311 207.610,188.850 209.050,189.013 209.600 C 189.175 210.150,189.554 210.955,189.854 211.389 C 190.154 211.823,190.405 212.453,190.411 212.789 C 190.436 214.141,198.973 229.946,201.111 232.600 C 201.288 232.820,202.143 234.080,203.011 235.400 C 207.490 242.215,216.935 252.417,225.000 259.152 C 227.420 261.173,229.670 263.059,230.000 263.343 C 233.724 266.552,253.277 278.039,254.960 278.007 C 255.158 278.003,256.238 278.433,257.360 278.962 C 258.482 279.491,260.750 280.413,262.400 281.010 C 266.817 282.609,271.521 284.732,273.323 285.939 C 274.195 286.522,275.350 287.296,275.891 287.657 C 276.796 288.262,282.463 293.982,283.412 295.250 C 286.115 298.858,287.959 302.553,289.405 307.258 C 291.341 313.560,290.194 329.265,287.552 332.635 C 287.364 332.874,286.961 333.774,286.655 334.635 C 285.172 338.815,279.025 346.013,274.149 349.279 C 270.908 351.450,266.917 353.600,266.130 353.600 C 265.823 353.600,265.173 353.858,264.686 354.172 C 260.987 356.561,206.869 357.753,202.179 355.548 C 199.516 354.296,198.305 351.323,199.163 348.138 C 200.345 343.749,201.273 343.616,230.665 343.607 C 262.824 343.598,264.145 343.271,272.933 333.152 C 276.882 328.605,278.827 316.768,276.737 310.000 C 275.128 304.789,270.330 298.794,266.021 296.611 C 264.941 296.063,263.952 295.446,263.824 295.238 C 263.696 295.031,263.008 294.736,262.295 294.581 C 258.536 293.769,244.727 287.743,239.000 284.417 C 237.900 283.778,236.592 283.067,236.094 282.836 C 235.596 282.604,234.696 282.079,234.094 281.667 C 233.492 281.256,231.380 279.858,229.400 278.561 C 227.420 277.264,224.360 275.072,222.600 273.689 C 220.840 272.306,218.321 270.325,217.002 269.287 C 214.317 267.174,202.701 255.673,200.142 252.594 C 195.979 247.585,189.648 238.832,187.826 235.565 C 187.372 234.750,185.906 232.130,184.569 229.742 C 181.584 224.411,178.001 217.114,177.998 216.359 C 177.996 216.051,177.716 215.266,177.376 214.612 C 176.261 212.475,174.453 207.689,174.170 206.128 C 174.018 205.288,173.646 204.112,173.344 203.516 C 173.043 202.920,172.514 201.210,172.170 199.716 C 171.825 198.222,171.301 196.190,171.006 195.200 C 170.050 192.000,168.431 182.339,167.955 177.000 C 167.603 173.041,167.308 171.538,166.719 170.700 L 165.946 169.600 147.450 169.600 C 126.625 169.600,123.147 169.929,118.000 172.389 C 109.693 176.358,104.763 183.881,103.994 193.763 C 103.476 200.426,103.496 225.409,104.021 227.300 L 104.438 228.800 106.919 228.800 C 110.360 228.801,117.779 229.536,118.990 229.996 C 119.541 230.206,121.675 230.648,123.732 230.979 C 125.788 231.310,127.995 231.854,128.636 232.188 C 129.276 232.522,130.112 232.796,130.494 232.798 C 131.480 232.801,138.780 235.303,142.800 237.015 C 144.670 237.811,146.740 238.654,147.400 238.888 C 148.060 239.122,148.884 239.558,149.231 239.857 C 149.579 240.155,150.008 240.400,150.186 240.400 C 151.498 240.400,163.126 246.971,169.653 251.400 C 178.769 257.586,187.286 265.628,191.258 271.800 C 194.016 276.085,196.778 281.585,196.793 282.820 C 196.797 283.161,196.992 283.632,197.227 283.867 C 200.985 287.625,200.985 316.375,197.227 320.133 C 196.992 320.368,196.800 320.864,196.800 321.235 C 196.800 322.110,192.570 330.347,191.568 331.426 C 191.145 331.880,190.800 332.390,190.800 332.558 C 190.800 333.473,184.796 340.138,181.200 343.215 C 178.447 345.571,172.561 349.600,171.872 349.600 C 171.647 349.600,171.179 349.833,170.831 350.119 C 163.207 356.379,127.872 358.647,115.760 353.653 C 104.507 349.014,97.137 341.323,93.094 330.000 C 91.290 324.949,91.200 322.625,91.200 281.156 L 91.200 242.092 90.300 241.520 C 89.415 240.958,87.344 240.435,82.600 239.574 C 77.136 238.583,61.567 232.364,60.589 230.782 C 60.442 230.545,59.881 230.183,59.342 229.978 C 57.701 229.354,49.638 223.309,46.607 220.430 C 43.729 217.696,39.809 213.448,38.090 211.200 C 37.164 209.990,36.181 208.738,35.904 208.418 C 33.859 206.055,26.800 193.023,26.800 191.610 C 26.800 191.253,26.604 190.764,26.364 190.524 C 25.853 190.013,24.169 184.528,23.378 180.800 C 23.075 179.370,22.506 176.940,22.113 175.400 C 21.092 171.391,21.079 152.701,22.095 148.800 C 22.467 147.370,22.973 145.038,23.219 143.617 C 23.464 142.196,23.894 140.576,24.174 140.017 C 24.454 139.458,24.883 138.190,25.127 137.200 C 25.372 136.210,25.938 134.687,26.386 133.815 C 26.834 132.944,27.200 132.005,27.200 131.730 C 27.200 131.170,30.969 123.560,32.019 122.000 C 32.389 121.450,33.380 119.920,34.222 118.600 C 38.969 111.150,49.246 100.587,55.236 97.000 C 55.971 96.560,57.028 95.890,57.586 95.511 C 75.991 82.999,104.673 79.302,125.000 86.823 C 126.100 87.230,127.540 87.688,128.200 87.841 C 129.623 88.170,130.929 88.790,140.200 93.537 C 148.066 97.565,160.569 109.301,166.048 117.800 C 166.616 118.680,167.657 120.300,168.361 121.400 C 169.447 123.094,171.146 126.446,173.834 132.200 C 174.623 133.888,175.964 137.802,176.644 140.400 C 176.961 141.610,177.489 143.487,177.818 144.570 C 178.147 145.654,178.627 148.656,178.886 151.241 C 179.318 155.567,179.431 155.977,180.297 156.371 C 180.944 156.666,192.870 156.803,218.519 156.810 C 242.989 156.816,256.350 156.962,257.400 157.235 C 258.280 157.463,260.170 157.910,261.600 158.226 C 269.032 159.871,279.757 167.186,282.676 172.600 C 283.032 173.260,283.542 173.980,283.809 174.200 C 284.077 174.420,284.760 175.500,285.326 176.600 C 289.566 184.828,290.050 187.284,290.255 201.600 C 290.468 216.439,290.342 215.828,292.940 214.607 C 294.168 214.030,297.159 212.939,300.800 211.740 C 301.790 211.415,303.140 210.890,303.800 210.576 C 304.460 210.261,305.810 209.746,306.800 209.430 C 309.125 208.690,313.971 206.894,315.000 206.390 C 315.440 206.175,316.610 205.737,317.600 205.417 C 320.754 204.396,324.582 202.986,325.141 202.638 C 325.439 202.453,326.699 201.973,327.941 201.571 C 331.753 200.337,334.959 199.192,335.839 198.751 C 336.769 198.284,341.118 196.708,344.183 195.726 C 347.852 194.551,348.563 193.957,348.924 191.766 C 349.936 185.621,351.472 180.648,353.915 175.600 C 356.203 170.871,364.842 160.400,366.454 160.400 C 366.611 160.400,367.266 159.956,367.910 159.414 C 369.814 157.812,372.348 157.319,374.484 158.135 C 376.374 158.856,377.332 159.995,383.792 169.200 C 385.414 171.510,387.571 174.570,388.587 176.000 C 392.868 182.026,394.800 184.827,394.800 185.008 C 394.800 185.114,395.081 185.515,395.425 185.900 C 396.746 187.379,398.379 189.703,398.611 190.435 C 398.745 190.856,399.112 191.200,399.427 191.200 C 400.168 191.200,400.297 171.766,399.557 171.519 C 399.314 171.438,399.089 170.388,399.057 169.186 C 399.003 167.115,398.942 166.993,397.900 166.873 C 397.295 166.804,396.800 166.575,396.800 166.364 C 396.800 166.154,396.125 165.221,395.300 164.291 C 394.475 163.361,393.620 162.303,393.400 161.941 C 392.936 161.176,391.045 158.452,388.519 154.909 C 381.578 145.174,371.003 142.833,361.544 148.937 C 351.397 155.486,342.529 168.304,338.649 182.030 C 337.670 185.491,338.155 185.227,322.152 191.025 C 316.898 192.929,310.925 195.098,308.878 195.845 C 303.206 197.916,302.646 197.576,302.216 191.800 C 301.301 179.501,295.039 166.355,286.419 158.636 C 285.660 157.956,284.660 157.039,284.198 156.597 C 281.436 153.958,275.030 150.255,270.053 148.420 C 261.209 145.159,256.526 144.814,220.922 144.806 L 192.045 144.800 191.002 143.900 C 190.213 143.219,189.685 141.979,188.830 138.800 C 185.511 126.450,179.417 114.271,171.972 105.104 C 157.601 87.409,136.610 75.340,114.400 72.003 C 109.210 71.223,97.023 70.655,94.000 71.052 M90.332 96.043 C 71.672 99.008,54.125 110.050,44.633 124.800 C 43.996 125.790,43.182 127.050,42.824 127.600 C 42.466 128.150,41.837 129.365,41.426 130.300 C 41.015 131.235,40.526 132.000,40.339 132.000 C 40.153 132.000,40.000 132.165,40.000 132.367 C 40.000 132.569,39.613 133.604,39.140 134.667 C 37.480 138.399,36.332 141.833,35.573 145.332 C 35.152 147.275,34.701 149.036,34.571 149.246 C 33.652 150.735,33.212 166.907,33.964 171.600 C 35.029 178.244,38.362 188.778,40.419 192.000 C 40.630 192.330,40.992 193.050,41.223 193.600 C 41.455 194.150,42.053 195.230,42.553 196.000 C 43.053 196.770,43.988 198.209,44.631 199.199 C 49.646 206.912,56.502 213.567,64.703 218.682 C 71.367 222.837,78.526 225.733,85.699 227.173 C 91.267 228.292,90.800 229.823,90.800 210.448 C 90.800 186.617,91.960 181.090,98.838 172.155 C 101.457 168.753,108.650 162.400,109.882 162.400 C 110.108 162.400,110.721 162.073,111.246 161.673 C 111.771 161.273,112.830 160.714,113.600 160.430 C 114.370 160.147,115.540 159.662,116.200 159.355 C 120.443 157.375,123.921 157.077,145.600 156.832 L 166.200 156.600 166.134 153.304 C 166.097 151.491,165.794 149.151,165.459 148.104 C 165.125 147.057,164.641 145.120,164.382 143.800 C 164.124 142.480,163.776 141.220,163.609 141.000 C 163.441 140.780,163.078 139.880,162.801 139.000 C 162.525 138.120,161.802 136.320,161.194 135.000 C 160.587 133.680,159.970 132.330,159.822 132.000 C 159.675 131.670,159.070 130.563,158.477 129.540 C 157.885 128.517,157.008 126.975,156.529 126.113 C 156.050 125.252,155.375 124.311,155.029 124.024 C 154.683 123.737,154.400 123.263,154.400 122.971 C 154.400 122.679,154.174 122.296,153.898 122.120 C 153.621 121.944,152.894 121.127,152.281 120.305 C 150.229 117.551,146.710 113.988,143.039 110.946 C 138.031 106.795,138.203 106.926,136.512 106.006 C 135.680 105.553,134.100 104.648,133.000 103.993 C 131.900 103.339,130.730 102.690,130.400 102.552 C 130.070 102.414,128.706 101.783,127.368 101.150 C 126.031 100.518,124.798 100.000,124.629 100.000 C 124.459 100.000,123.754 99.753,123.060 99.451 C 114.641 95.788,100.928 94.360,90.332 96.043 M104.124 242.100 C 103.635 242.855,103.497 312.825,103.971 319.297 C 104.299 323.766,104.564 325.209,105.387 327.009 C 105.944 328.227,106.400 329.389,106.400 329.592 C 106.400 331.018,111.701 336.931,114.936 339.115 C 120.796 343.070,125.201 343.810,140.940 343.484 C 155.779 343.177,159.592 342.312,168.200 337.299 C 171.621 335.307,179.397 328.011,179.951 326.273 C 180.034 326.013,180.430 325.438,180.832 324.995 C 181.233 324.552,181.843 323.562,182.187 322.795 C 182.531 322.028,182.980 321.130,183.186 320.800 C 187.129 314.473,188.682 301.814,186.611 292.871 C 183.624 279.971,176.637 271.354,160.400 260.543 C 154.194 256.412,148.618 253.410,141.200 250.211 C 139.330 249.404,137.440 248.577,137.000 248.372 C 132.801 246.421,121.989 243.474,113.600 241.993 C 110.366 241.422,104.520 241.488,104.124 242.100 " stroke="none" fill="#93c254" fill-rule="evenodd"></path><path id="path1" d="M89.600 85.407 C 74.140 87.323,57.330 95.608,45.792 107.000 C 18.637 133.810,15.250 178.305,38.068 208.458 C 50.163 224.441,69.679 236.419,87.200 238.613 C 89.711 238.928,91.742 239.670,92.251 240.459 C 92.443 240.757,92.697 259.540,92.815 282.200 C 93.030 323.333,93.031 323.406,93.931 326.800 C 97.482 340.196,107.444 350.001,121.055 353.495 C 125.252 354.573,151.523 354.543,156.200 353.456 C 163.244 351.818,172.100 348.216,175.529 345.594 C 181.217 341.244,186.129 336.606,187.962 333.853 C 188.313 333.326,189.284 331.866,190.121 330.608 C 203.315 310.757,200.901 283.534,184.382 265.878 C 167.203 247.516,134.053 232.105,108.384 230.546 C 104.863 230.332,103.746 230.115,102.955 229.493 L 101.958 228.709 102.079 209.454 L 102.200 190.200 103.273 187.172 C 106.764 177.320,114.256 170.534,123.743 168.631 C 127.449 167.887,165.505 167.680,167.381 168.393 C 168.774 168.922,169.038 169.793,169.568 175.613 C 171.825 200.364,181.642 225.735,196.571 245.400 C 197.907 247.160,199.092 248.690,199.205 248.800 C 199.318 248.910,200.556 250.350,201.956 252.000 C 206.895 257.822,217.359 267.947,220.800 270.235 C 221.570 270.746,223.666 272.298,225.457 273.683 C 227.248 275.067,230.011 277.010,231.596 278.000 C 233.181 278.990,235.136 280.236,235.939 280.769 C 240.176 283.580,250.283 288.292,259.600 291.802 C 266.859 294.537,270.438 296.923,274.009 301.411 C 284.442 314.523,279.528 335.081,264.200 342.442 C 257.902 345.467,259.225 345.346,229.784 345.585 L 203.367 345.800 202.127 346.800 C 200.008 348.509,199.983 351.467,202.069 353.467 L 203.252 354.600 225.820 354.729 C 250.215 354.869,257.736 354.553,262.095 353.204 C 278.248 348.208,287.917 335.687,288.682 318.776 C 289.433 302.160,280.754 289.748,264.000 283.477 C 261.910 282.695,258.850 281.493,257.200 280.807 C 255.550 280.121,253.480 279.262,252.600 278.898 C 250.832 278.167,241.805 273.258,239.600 271.829 C 236.911 270.086,233.498 267.794,232.410 267.000 C 231.806 266.560,230.792 265.849,230.156 265.421 C 214.003 254.531,196.734 232.517,188.076 211.779 C 181.331 195.622,176.406 171.227,179.412 168.862 L 180.508 168.000 217.754 168.003 C 253.665 168.006,255.120 168.034,258.350 168.809 C 266.075 170.661,273.000 176.087,276.327 182.897 C 279.209 188.796,279.293 189.367,279.562 204.800 C 279.836 220.539,279.809 220.406,283.456 223.524 C 288.658 227.971,287.498 228.221,324.000 214.804 C 326.310 213.955,330.900 212.274,334.200 211.068 C 362.013 200.906,359.179 202.660,359.699 195.291 C 360.285 186.990,363.450 178.996,368.199 173.823 C 370.991 170.782,371.573 171.015,375.651 176.800 C 377.280 179.110,378.930 181.450,379.317 182.000 C 379.705 182.550,380.828 184.170,381.812 185.600 C 382.796 187.030,384.943 190.090,386.584 192.400 C 388.224 194.710,390.385 197.770,391.386 199.200 C 397.904 208.512,399.123 210.174,399.537 210.312 C 399.878 210.426,400.000 208.252,400.000 202.080 C 400.000 194.406,399.940 193.678,399.295 193.509 C 398.907 193.408,397.692 192.017,396.595 190.419 C 395.498 188.821,394.194 186.948,393.699 186.257 C 393.203 185.565,392.361 184.370,391.828 183.600 C 391.294 182.830,390.030 181.030,389.019 179.600 C 388.007 178.170,386.187 175.560,384.974 173.800 C 375.543 160.110,375.120 159.633,372.332 159.528 C 370.001 159.440,359.600 167.640,359.600 169.566 C 359.600 169.744,359.066 170.561,358.414 171.382 C 355.356 175.230,352.115 183.578,351.170 190.039 C 350.416 195.196,350.298 195.298,341.191 198.626 C 336.906 200.192,328.900 203.144,323.400 205.187 C 317.900 207.230,310.970 209.794,308.000 210.886 C 305.030 211.979,300.890 213.507,298.800 214.282 C 287.964 218.304,288.400 218.799,288.400 202.450 C 288.400 183.879,284.346 173.227,274.800 166.709 C 274.250 166.333,273.025 165.478,272.078 164.808 C 263.288 158.588,261.684 158.400,217.416 158.400 C 174.300 158.400,177.941 158.891,177.390 153.000 C 175.676 134.650,163.607 112.741,149.122 101.686 C 146.332 99.556,142.123 96.510,141.747 96.349 C 141.556 96.267,139.150 94.998,136.400 93.530 C 122.770 86.251,106.118 83.361,89.600 85.407 M112.000 94.562 C 140.034 99.822,161.747 121.084,167.402 148.812 C 169.568 159.428,170.822 158.799,147.456 158.803 C 116.140 158.809,109.584 160.849,99.906 173.600 C 93.672 181.813,93.100 184.611,92.827 208.200 C 92.574 230.030,92.630 229.600,90.058 229.600 C 84.658 229.600,70.646 224.730,64.833 220.832 C 64.265 220.451,62.900 219.537,61.800 218.799 C 56.977 215.567,49.928 209.190,47.323 205.704 C 46.705 204.877,45.889 203.856,45.508 203.434 C 43.926 201.679,40.601 196.305,38.808 192.600 C 19.171 152.047,42.636 103.552,86.000 95.067 C 87.870 94.701,90.210 94.241,91.200 94.044 C 95.088 93.270,106.651 93.558,112.000 94.562 M371.981 220.374 C 370.650 220.784,367.424 222.920,363.125 226.241 C 361.956 227.143,358.840 229.465,356.200 231.400 C 353.560 233.335,349.960 235.978,348.200 237.274 C 346.440 238.569,343.099 241.017,340.775 242.714 C 336.267 246.007,328.661 251.594,323.778 255.200 C 322.140 256.410,319.086 258.660,316.993 260.200 C 314.899 261.740,311.487 264.260,309.410 265.800 C 307.333 267.340,304.263 269.590,302.588 270.800 C 300.914 272.010,298.611 273.735,297.472 274.634 C 296.332 275.533,294.281 277.030,292.914 277.960 C 287.571 281.595,286.739 285.700,290.908 287.856 C 293.365 289.127,294.286 288.599,309.665 277.098 C 310.031 276.824,311.704 275.610,313.382 274.400 C 315.060 273.190,318.125 270.940,320.193 269.400 C 322.261 267.860,325.321 265.610,326.993 264.400 C 328.665 263.190,331.733 260.940,333.810 259.400 C 335.887 257.860,338.174 256.186,338.893 255.680 C 339.612 255.174,341.949 253.464,344.087 251.880 C 346.225 250.296,349.098 248.190,350.470 247.200 C 351.843 246.210,354.954 243.926,357.383 242.125 C 359.812 240.323,362.520 238.328,363.400 237.692 C 364.280 237.055,366.767 235.222,368.927 233.619 C 373.645 230.116,374.453 229.883,378.409 230.877 C 382.536 231.915,389.872 232.233,395.025 231.597 L 399.200 231.082 399.200 229.741 C 399.200 229.003,399.380 228.400,399.600 228.400 C 399.835 228.400,400.000 227.000,400.000 225.000 C 400.000 222.546,399.861 221.600,399.500 221.601 C 399.225 221.602,397.380 221.892,395.400 222.245 C 390.296 223.156,382.941 222.814,378.600 221.464 C 374.522 220.196,373.244 219.985,371.981 220.374 M110.498 240.002 C 135.727 242.092,170.073 260.359,182.113 278.090 C 195.577 297.918,189.761 325.535,169.400 338.456 C 166.255 340.452,165.711 340.735,162.314 342.141 C 150.871 346.878,126.329 347.004,117.143 342.373 C 109.771 338.656,104.262 331.614,102.605 323.789 C 101.795 319.968,101.697 242.133,102.500 241.126 C 103.779 239.523,104.129 239.474,110.498 240.002 " stroke="none" fill="#1e3a22" fill-rule="evenodd"></path><path id="path2" d="M171.600 0.400 C 171.600 0.640,170.019 0.800,167.656 0.800 C 162.103 0.800,160.000 1.132,160.000 2.010 C 160.000 2.627,159.468 2.730,155.572 2.863 C 151.581 3.000,151.077 3.101,150.472 3.892 C 149.912 4.622,149.332 4.788,147.000 4.884 C 144.442 4.990,144.189 5.078,144.072 5.900 C 143.953 6.742,143.751 6.800,140.946 6.800 C 137.798 6.800,136.400 7.235,136.400 8.214 C 136.400 8.641,135.917 8.800,134.626 8.800 C 132.440 8.800,130.800 9.387,130.800 10.169 C 130.800 10.598,130.228 10.791,128.700 10.879 C 126.871 10.984,126.584 11.116,126.472 11.900 C 126.354 12.734,126.142 12.800,123.572 12.800 C 120.882 12.800,120.800 12.830,120.800 13.800 C 120.800 14.733,120.667 14.800,118.800 14.800 C 116.933 14.800,116.800 14.867,116.800 15.800 C 116.800 16.733,116.667 16.800,114.800 16.800 C 112.933 16.800,112.800 16.867,112.800 17.800 C 112.800 18.733,112.667 18.800,110.800 18.800 C 109.113 18.800,108.800 18.917,108.800 19.548 C 108.800 20.145,108.393 20.351,106.800 20.562 C 105.168 20.779,104.800 20.972,104.800 21.614 C 104.800 22.265,104.524 22.400,103.190 22.400 C 101.841 22.400,101.519 22.562,101.200 23.400 C 100.913 24.154,100.530 24.400,99.643 24.400 C 97.945 24.400,97.200 24.779,97.200 25.643 C 97.200 26.184,96.914 26.400,96.200 26.400 C 95.400 26.400,95.200 26.600,95.200 27.400 C 95.200 28.333,95.067 28.400,93.200 28.400 C 91.362 28.400,91.200 28.477,91.200 29.349 C 91.200 30.150,90.945 30.338,89.560 30.560 C 88.395 30.746,87.859 31.051,87.713 31.611 C 87.568 32.166,87.165 32.400,86.353 32.400 C 85.390 32.400,85.200 32.565,85.200 33.400 C 85.200 34.200,85.000 34.400,84.200 34.400 C 83.400 34.400,83.200 34.600,83.200 35.400 C 83.200 36.319,83.053 36.400,81.400 36.400 C 79.747 36.400,79.600 36.481,79.600 37.400 C 79.600 38.192,79.398 38.400,78.628 38.400 C 77.924 38.400,77.620 38.649,77.528 39.300 C 77.446 39.878,77.078 40.246,76.500 40.328 C 75.922 40.410,75.600 40.732,75.600 41.228 C 75.600 41.802,75.318 42.001,74.500 42.005 C 72.644 42.015,71.600 42.451,71.600 43.219 C 71.600 43.667,71.256 43.993,70.700 44.072 C 70.130 44.153,69.754 44.521,69.675 45.075 C 69.598 45.621,69.221 45.998,68.675 46.075 C 68.121 46.154,67.753 46.530,67.672 47.100 C 67.580 47.751,67.276 48.000,66.572 48.000 C 65.802 48.000,65.600 48.208,65.600 49.000 C 65.600 49.800,65.400 50.000,64.600 50.000 C 63.808 50.000,63.600 50.202,63.600 50.972 C 63.600 51.676,63.351 51.980,62.700 52.072 C 62.122 52.154,61.754 52.522,61.672 53.100 C 61.590 53.678,61.268 54.000,60.772 54.000 C 60.215 54.000,60.000 54.279,60.000 55.000 C 60.000 55.800,59.800 56.000,59.000 56.000 C 58.200 56.000,58.000 56.200,58.000 57.000 C 58.000 57.800,57.800 58.000,57.000 58.000 C 56.200 58.000,56.000 58.200,56.000 59.000 C 56.000 59.800,55.800 60.000,55.000 60.000 C 54.279 60.000,54.000 60.215,54.000 60.772 C 54.000 61.268,53.678 61.590,53.100 61.672 C 52.522 61.754,52.154 62.122,52.072 62.700 C 51.980 63.351,51.676 63.600,50.972 63.600 C 50.202 63.600,50.000 63.808,50.000 64.600 C 50.000 65.400,49.800 65.600,49.000 65.600 C 48.208 65.600,48.000 65.802,48.000 66.572 C 48.000 67.276,47.751 67.580,47.100 67.672 C 46.530 67.753,46.154 68.121,46.075 68.675 C 45.998 69.221,45.621 69.598,45.075 69.675 C 44.521 69.754,44.153 70.130,44.072 70.700 C 43.993 71.256,43.667 71.600,43.219 71.600 C 42.451 71.600,42.015 72.644,42.005 74.500 C 42.001 75.318,41.802 75.600,41.228 75.600 C 40.732 75.600,40.410 75.922,40.328 76.500 C 40.246 77.078,39.878 77.446,39.300 77.528 C 38.649 77.620,38.400 77.924,38.400 78.628 C 38.400 79.398,38.192 79.600,37.400 79.600 C 36.481 79.600,36.400 79.747,36.400 81.400 C 36.400 83.053,36.319 83.200,35.400 83.200 C 34.600 83.200,34.400 83.400,34.400 84.200 C 34.400 85.000,34.200 85.200,33.400 85.200 C 32.565 85.200,32.400 85.390,32.400 86.353 C 32.400 87.165,32.166 87.568,31.611 87.713 C 31.051 87.859,30.746 88.395,30.560 89.560 C 30.338 90.945,30.150 91.200,29.349 91.200 C 28.477 91.200,28.400 91.362,28.400 93.200 C 28.400 95.067,28.333 95.200,27.400 95.200 C 26.600 95.200,26.400 95.400,26.400 96.200 C 26.400 96.914,26.184 97.200,25.643 97.200 C 24.779 97.200,24.400 97.945,24.400 99.643 C 24.400 100.530,24.154 100.913,23.400 101.200 C 22.562 101.519,22.400 101.841,22.400 103.190 C 22.400 104.524,22.265 104.800,21.614 104.800 C 20.972 104.800,20.779 105.168,20.562 106.800 C 20.351 108.393,20.145 108.800,19.548 108.800 C 18.917 108.800,18.800 109.113,18.800 110.800 C 18.800 112.667,18.733 112.800,17.800 112.800 C 16.867 112.800,16.800 112.933,16.800 114.800 C 16.800 116.667,16.733 116.800,15.800 116.800 C 14.867 116.800,14.800 116.933,14.800 118.800 C 14.800 120.667,14.733 120.800,13.800 120.800 C 12.830 120.800,12.800 120.882,12.800 123.572 C 12.800 126.142,12.734 126.354,11.900 126.472 C 11.116 126.584,10.984 126.871,10.879 128.700 C 10.791 130.228,10.598 130.800,10.169 130.800 C 9.642 130.800,8.743 132.381,8.852 133.114 C 9.071 134.583,8.719 136.400,8.214 136.400 C 7.235 136.400,6.800 137.798,6.800 140.946 C 6.800 143.751,6.742 143.953,5.900 144.072 C 5.078 144.189,4.990 144.442,4.884 147.000 C 4.788 149.332,4.622 149.912,3.892 150.472 C 3.101 151.077,3.000 151.581,2.863 155.572 C 2.730 159.468,2.627 160.000,2.010 160.000 C 1.132 160.000,0.800 162.103,0.800 167.656 C 0.800 170.019,0.640 171.600,0.400 171.600 C 0.137 171.600,0.000 181.333,0.000 200.000 C 0.000 218.667,0.137 228.400,0.400 228.400 C 0.640 228.400,0.800 229.981,0.800 232.344 C 0.800 237.897,1.132 240.000,2.010 240.000 C 2.627 240.000,2.730 240.532,2.863 244.428 C 3.000 248.419,3.101 248.923,3.892 249.528 C 4.622 250.088,4.788 250.668,4.884 253.000 C 4.990 255.558,5.078 255.811,5.900 255.928 C 6.742 256.047,6.800 256.249,6.800 259.054 C 6.800 262.202,7.235 263.600,8.214 263.600 C 8.641 263.600,8.800 264.083,8.800 265.374 C 8.800 267.560,9.387 269.200,10.169 269.200 C 10.598 269.200,10.791 269.772,10.879 271.300 C 10.984 273.129,11.116 273.416,11.900 273.528 C 12.734 273.646,12.800 273.858,12.800 276.428 C 12.800 279.118,12.830 279.200,13.800 279.200 C 14.733 279.200,14.800 279.333,14.800 281.200 C 14.800 283.067,14.867 283.200,15.800 283.200 C 16.733 283.200,16.800 283.333,16.800 285.200 C 16.800 287.067,16.867 287.200,17.800 287.200 C 18.733 287.200,18.800 287.333,18.800 289.200 C 18.800 290.887,18.917 291.200,19.548 291.200 C 20.145 291.200,20.351 291.607,20.562 293.200 C 20.779 294.832,20.972 295.200,21.614 295.200 C 22.265 295.200,22.400 295.476,22.400 296.810 C 22.400 298.159,22.562 298.481,23.400 298.800 C 24.154 299.087,24.400 299.470,24.400 300.357 C 24.400 302.055,24.779 302.800,25.643 302.800 C 26.184 302.800,26.400 303.086,26.400 303.800 C 26.400 304.600,26.600 304.800,27.400 304.800 C 28.333 304.800,28.400 304.933,28.400 306.800 C 28.400 308.638,28.477 308.800,29.349 308.800 C 30.150 308.800,30.338 309.055,30.560 310.440 C 30.746 311.605,31.051 312.141,31.611 312.287 C 32.166 312.432,32.400 312.835,32.400 313.647 C 32.400 314.610,32.565 314.800,33.400 314.800 C 34.200 314.800,34.400 315.000,34.400 315.800 C 34.400 316.600,34.600 316.800,35.400 316.800 C 36.319 316.800,36.400 316.947,36.400 318.600 C 36.400 320.253,36.481 320.400,37.400 320.400 C 38.192 320.400,38.400 320.602,38.400 321.372 C 38.400 322.076,38.649 322.380,39.300 322.472 C 39.878 322.554,40.246 322.922,40.328 323.500 C 40.410 324.078,40.732 324.400,41.228 324.400 C 41.802 324.400,42.001 324.682,42.005 325.500 C 42.015 327.356,42.451 328.400,43.219 328.400 C 43.667 328.400,43.993 328.744,44.072 329.300 C 44.153 329.870,44.521 330.246,45.075 330.325 C 45.621 330.402,45.998 330.779,46.075 331.325 C 46.154 331.879,46.530 332.247,47.100 332.328 C 47.751 332.420,48.000 332.724,48.000 333.428 C 48.000 334.198,48.208 334.400,49.000 334.400 C 49.800 334.400,50.000 334.600,50.000 335.400 C 50.000 336.192,50.202 336.400,50.972 336.400 C 51.676 336.400,51.980 336.649,52.072 337.300 C 52.154 337.878,52.522 338.246,53.100 338.328 C 53.678 338.410,54.000 338.732,54.000 339.228 C 54.000 339.785,54.279 340.000,55.000 340.000 C 55.800 340.000,56.000 340.200,56.000 341.000 C 56.000 341.800,56.200 342.000,57.000 342.000 C 57.800 342.000,58.000 342.200,58.000 343.000 C 58.000 343.800,58.200 344.000,59.000 344.000 C 59.800 344.000,60.000 344.200,60.000 345.000 C 60.000 345.721,60.215 346.000,60.772 346.000 C 61.268 346.000,61.590 346.322,61.672 346.900 C 61.754 347.478,62.122 347.846,62.700 347.928 C 63.351 348.020,63.600 348.324,63.600 349.028 C 63.600 349.798,63.808 350.000,64.600 350.000 C 65.400 350.000,65.600 350.200,65.600 351.000 C 65.600 351.792,65.802 352.000,66.572 352.000 C 67.276 352.000,67.580 352.249,67.672 352.900 C 67.753 353.470,68.121 353.846,68.675 353.925 C 69.221 354.002,69.598 354.379,69.675 354.925 C 69.754 355.479,70.130 355.847,70.700 355.928 C 71.256 356.007,71.600 356.333,71.600 356.781 C 71.600 357.549,72.644 357.985,74.500 357.995 C 75.318 357.999,75.600 358.198,75.600 358.772 C 75.600 359.268,75.922 359.590,76.500 359.672 C 77.078 359.754,77.446 360.122,77.528 360.700 C 77.620 361.351,77.924 361.600,78.628 361.600 C 79.398 361.600,79.600 361.808,79.600 362.600 C 79.600 363.519,79.747 363.600,81.400 363.600 C 83.053 363.600,83.200 363.681,83.200 364.600 C 83.200 365.400,83.400 365.600,84.200 365.600 C 85.000 365.600,85.200 365.800,85.200 366.600 C 85.200 367.435,85.390 367.600,86.353 367.600 C 87.165 367.600,87.568 367.834,87.713 368.389 C 87.859 368.949,88.395 369.254,89.560 369.440 C 90.945 369.662,91.200 369.850,91.200 370.651 C 91.200 371.523,91.362 371.600,93.200 371.600 C 95.067 371.600,95.200 371.667,95.200 372.600 C 95.200 373.400,95.400 373.600,96.200 373.600 C 96.914 373.600,97.200 373.816,97.200 374.357 C 97.200 375.221,97.945 375.600,99.643 375.600 C 100.530 375.600,100.913 375.846,101.200 376.600 C 101.519 377.438,101.841 377.600,103.190 377.600 C 104.524 377.600,104.800 377.735,104.800 378.386 C 104.800 379.028,105.168 379.221,106.800 379.438 C 108.393 379.649,108.800 379.855,108.800 380.452 C 108.800 381.083,109.113 381.200,110.800 381.200 C 112.667 381.200,112.800 381.267,112.800 382.200 C 112.800 383.133,112.933 383.200,114.800 383.200 C 116.667 383.200,116.800 383.267,116.800 384.200 C 116.800 385.133,116.933 385.200,118.800 385.200 C 120.667 385.200,120.800 385.267,120.800 386.200 C 120.800 387.170,120.882 387.200,123.572 387.200 C 126.142 387.200,126.354 387.266,126.472 388.100 C 126.584 388.884,126.871 389.016,128.700 389.121 C 130.228 389.209,130.800 389.402,130.800 389.831 C 130.800 390.613,132.440 391.200,134.626 391.200 C 135.917 391.200,136.400 391.359,136.400 391.786 C 136.400 392.765,137.798 393.200,140.946 393.200 C 143.751 393.200,143.953 393.258,144.072 394.100 C 144.189 394.922,144.442 395.010,147.000 395.116 C 149.332 395.212,149.912 395.378,150.472 396.108 C 151.077 396.899,151.581 397.000,155.572 397.137 C 159.468 397.270,160.000 397.373,160.000 397.990 C 160.000 398.868,162.103 399.200,167.656 399.200 C 170.019 399.200,171.600 399.360,171.600 399.600 C 171.600 399.863,181.333 400.000,200.000 400.000 C 218.667 400.000,228.400 399.863,228.400 399.600 C 228.400 399.360,229.981 399.200,232.344 399.200 C 237.897 399.200,240.000 398.868,240.000 397.990 C 240.000 397.373,240.532 397.270,244.428 397.137 C 248.419 397.000,248.923 396.899,249.528 396.108 C 250.088 395.378,250.668 395.212,253.000 395.116 C 255.558 395.010,255.811 394.922,255.928 394.100 C 256.047 393.258,256.249 393.200,259.054 393.200 C 262.202 393.200,263.600 392.765,263.600 391.786 C 263.600 391.359,264.083 391.200,265.374 391.200 C 267.560 391.200,269.200 390.613,269.200 389.831 C 269.200 389.402,269.772 389.209,271.300 389.121 C 273.129 389.016,273.416 388.884,273.528 388.100 C 273.646 387.266,273.858 387.200,276.428 387.200 C 279.118 387.200,279.200 387.170,279.200 386.200 C 279.200 385.267,279.333 385.200,281.200 385.200 C 283.067 385.200,283.200 385.133,283.200 384.200 C 283.200 383.267,283.333 383.200,285.200 383.200 C 287.067 383.200,287.200 383.133,287.200 382.200 C 287.200 381.267,287.333 381.200,289.200 381.200 C 290.887 381.200,291.200 381.083,291.200 380.452 C 291.200 379.855,291.607 379.649,293.200 379.438 C 294.832 379.221,295.200 379.028,295.200 378.386 C 295.200 377.735,295.476 377.600,296.810 377.600 C 298.159 377.600,298.481 377.438,298.800 376.600 C 299.087 375.846,299.470 375.600,300.357 375.600 C 302.055 375.600,302.800 375.221,302.800 374.357 C 302.800 373.816,303.086 373.600,303.800 373.600 C 304.600 373.600,304.800 373.400,304.800 372.600 C 304.800 371.667,304.933 371.600,306.800 371.600 C 308.638 371.600,308.800 371.523,308.800 370.651 C 308.800 369.850,309.055 369.662,310.440 369.440 C 311.605 369.254,312.141 368.949,312.287 368.389 C 312.432 367.834,312.835 367.600,313.647 367.600 C 314.610 367.600,314.800 367.435,314.800 366.600 C 314.800 365.800,315.000 365.600,315.800 365.600 C 316.600 365.600,316.800 365.400,316.800 364.600 C 316.800 363.681,316.947 363.600,318.600 363.600 C 320.253 363.600,320.400 363.519,320.400 362.600 C 320.400 361.808,320.602 361.600,321.372 361.600 C 322.076 361.600,322.380 361.351,322.472 360.700 C 322.554 360.122,322.922 359.754,323.500 359.672 C 324.078 359.590,324.400 359.268,324.400 358.772 C 324.400 358.198,324.682 357.999,325.500 357.995 C 327.356 357.985,328.400 357.549,328.400 356.781 C 328.400 356.333,328.744 356.007,329.300 355.928 C 329.870 355.847,330.246 355.479,330.325 354.925 C 330.402 354.379,330.779 354.002,331.325 353.925 C 331.879 353.846,332.247 353.470,332.328 352.900 C 332.420 352.249,332.724 352.000,333.428 352.000 C 334.198 352.000,334.400 351.792,334.400 351.000 C 334.400 350.200,334.600 350.000,335.400 350.000 C 336.192 350.000,336.400 349.798,336.400 349.028 C 336.400 348.324,336.649 348.020,337.300 347.928 C 337.878 347.846,338.246 347.478,338.328 346.900 C 338.410 346.322,338.732 346.000,339.228 346.000 C 339.785 346.000,340.000 345.721,340.000 345.000 C 340.000 344.200,340.200 344.000,341.000 344.000 C 341.800 344.000,342.000 343.800,342.000 343.000 C 342.000 342.200,342.200 342.000,343.000 342.000 C 343.800 342.000,344.000 341.800,344.000 341.000 C 344.000 340.200,344.200 340.000,345.000 340.000 C 345.721 340.000,346.000 339.785,346.000 339.228 C 346.000 338.732,346.322 338.410,346.900 338.328 C 347.478 338.246,347.846 337.878,347.928 337.300 C 348.020 336.649,348.324 336.400,349.028 336.400 C 349.798 336.400,350.000 336.192,350.000 335.400 C 350.000 334.600,350.200 334.400,351.000 334.400 C 351.792 334.400,352.000 334.198,352.000 333.428 C 352.000 332.724,352.249 332.420,352.900 332.328 C 353.470 332.247,353.846 331.879,353.925 331.325 C 354.002 330.779,354.379 330.402,354.925 330.325 C 355.479 330.246,355.847 329.870,355.928 329.300 C 356.007 328.744,356.333 328.400,356.781 328.400 C 357.549 328.400,357.985 327.356,357.995 325.500 C 357.999 324.682,358.198 324.400,358.772 324.400 C 359.268 324.400,359.590 324.078,359.672 323.500 C 359.754 322.922,360.122 322.554,360.700 322.472 C 361.351 322.380,361.600 322.076,361.600 321.372 C 361.600 320.602,361.808 320.400,362.600 320.400 C 363.519 320.400,363.600 320.253,363.600 318.600 C 363.600 316.947,363.681 316.800,364.600 316.800 C 365.400 316.800,365.600 316.600,365.600 315.800 C 365.600 315.000,365.800 314.800,366.600 314.800 C 367.435 314.800,367.600 314.610,367.600 313.647 C 367.600 312.835,367.834 312.432,368.389 312.287 C 368.949 312.141,369.254 311.605,369.440 310.440 C 369.662 309.055,369.850 308.800,370.651 308.800 C 371.523 308.800,371.600 308.638,371.600 306.800 C 371.600 304.933,371.667 304.800,372.600 304.800 C 373.400 304.800,373.600 304.600,373.600 303.800 C 373.600 303.086,373.816 302.800,374.357 302.800 C 375.221 302.800,375.600 302.055,375.600 300.357 C 375.600 299.470,375.846 299.087,376.600 298.800 C 377.438 298.481,377.600 298.159,377.600 296.810 C 377.600 295.476,377.735 295.200,378.386 295.200 C 379.028 295.200,379.221 294.832,379.438 293.200 C 379.649 291.607,379.855 291.200,380.452 291.200 C 381.083 291.200,381.200 290.887,381.200 289.200 C 381.200 287.333,381.267 287.200,382.200 287.200 C 383.133 287.200,383.200 287.067,383.200 285.200 C 383.200 283.333,383.267 283.200,384.200 283.200 C 385.133 283.200,385.200 283.067,385.200 281.200 C 385.200 279.333,385.267 279.200,386.200 279.200 C 387.170 279.200,387.200 279.118,387.200 276.428 C 387.200 273.858,387.266 273.646,388.100 273.528 C 388.884 273.416,389.016 273.129,389.121 271.300 C 389.209 269.772,389.402 269.200,389.831 269.200 C 390.613 269.200,391.200 267.560,391.200 265.374 C 391.200 264.083,391.359 263.600,391.786 263.600 C 392.765 263.600,393.200 262.202,393.200 259.054 C 393.200 256.249,393.258 256.047,394.100 255.928 C 394.922 255.811,395.010 255.558,395.116 253.000 C 395.204 250.864,395.406 250.058,395.966 249.600 C 396.369 249.270,396.824 248.460,396.976 247.800 C 397.213 246.773,397.177 246.691,396.726 247.233 C 396.258 247.795,395.122 247.827,386.442 247.522 C 378.727 247.251,376.539 247.286,375.991 247.690 C 375.362 248.152,367.070 254.595,364.910 256.298 C 364.421 256.684,363.341 257.502,362.510 258.115 C 360.644 259.493,354.619 264.176,351.400 266.750 C 350.080 267.806,347.020 270.171,344.600 272.005 C 340.253 275.301,338.056 277.002,332.861 281.097 C 331.397 282.250,330.020 283.331,329.800 283.498 C 319.795 291.107,315.041 294.759,313.924 295.697 C 313.333 296.194,312.415 296.960,311.885 297.400 C 311.356 297.840,309.540 299.190,307.851 300.400 C 304.159 303.045,304.454 301.886,304.237 314.600 C 304.099 322.679,303.910 325.536,303.390 327.400 C 303.021 328.720,302.481 330.790,302.188 332.001 C 301.895 333.211,301.374 334.741,301.030 335.401 C 300.686 336.060,300.404 336.835,300.402 337.122 C 300.401 337.409,299.532 339.299,298.471 341.322 C 290.390 356.729,276.403 366.781,259.674 369.205 C 252.096 370.303,131.442 370.452,123.068 369.373 C 114.185 368.229,109.587 366.577,100.873 361.400 C 95.072 357.953,86.215 348.444,83.735 343.000 C 83.434 342.340,83.015 341.530,82.804 341.200 C 81.017 338.409,78.561 330.628,77.751 325.194 C 77.164 321.253,77.034 315.808,76.833 286.864 L 76.600 253.129 75.688 252.390 C 75.186 251.984,73.753 251.439,72.504 251.180 C 71.255 250.921,69.506 250.385,68.617 249.989 C 65.483 248.595,62.097 247.200,61.848 247.200 C 60.192 247.200,46.046 238.107,40.989 233.792 C 33.952 227.787,30.584 224.196,24.489 216.200 C 15.607 204.549,8.423 184.352,7.634 168.822 C 7.241 161.073,7.812 148.327,8.648 146.200 C 9.049 145.180,9.280 143.313,9.286 141.050 C 9.294 137.908,9.382 137.478,10.052 137.302 C 11.031 137.046,11.363 135.652,11.035 133.179 C 10.782 131.271,10.808 131.200,11.759 131.200 C 12.871 131.200,13.300 130.327,13.189 128.291 C 13.077 126.235,13.156 126.000,13.953 126.000 C 14.752 126.000,15.185 124.984,15.195 123.087 C 15.198 122.396,15.465 121.877,15.900 121.717 C 16.801 121.384,17.186 120.805,17.194 119.772 C 17.197 119.317,17.650 118.553,18.200 118.075 C 18.750 117.597,19.200 116.866,19.200 116.452 C 19.200 116.037,19.483 115.463,19.829 115.176 C 20.175 114.889,20.809 113.966,21.237 113.127 C 21.666 112.287,22.180 111.600,22.381 111.600 C 22.582 111.600,22.872 111.205,23.025 110.722 C 23.307 109.833,25.737 106.554,29.312 102.239 C 30.983 100.221,38.078 93.042,40.600 90.817 C 41.874 89.694,46.452 86.290,48.200 85.167 C 49.080 84.601,50.520 83.673,51.400 83.104 C 53.052 82.036,59.581 78.400,59.848 78.400 C 59.930 78.400,61.123 77.890,62.499 77.267 C 72.031 72.948,77.689 71.396,90.400 69.610 C 98.011 68.541,103.095 68.585,112.258 69.799 C 119.455 70.752,121.736 71.255,129.000 73.489 C 144.315 78.199,164.075 91.512,172.208 102.600 C 172.853 103.480,174.151 105.119,175.091 106.243 C 176.031 107.367,176.800 108.393,176.800 108.524 C 176.800 108.655,177.582 109.895,178.538 111.281 C 180.343 113.897,184.400 120.960,184.400 121.487 C 184.400 121.653,184.838 122.691,185.373 123.794 C 187.549 128.281,189.226 132.831,190.242 137.000 C 190.987 140.060,191.578 141.620,192.328 142.500 C 192.886 143.156,194.939 143.200,224.879 143.200 L 256.834 143.200 261.917 144.227 C 274.517 146.771,285.910 153.762,293.200 163.421 C 293.530 163.858,294.281 164.858,294.870 165.642 C 296.301 167.549,299.792 174.203,300.410 176.200 C 300.682 177.080,301.042 177.980,301.210 178.200 C 301.961 179.184,303.704 186.961,303.969 190.510 C 304.129 192.661,304.427 194.582,304.630 194.779 C 304.974 195.113,309.868 193.760,311.800 192.798 C 312.240 192.578,313.410 192.144,314.400 191.833 C 315.390 191.522,317.640 190.703,319.400 190.014 C 321.160 189.324,323.590 188.419,324.800 188.003 C 326.010 187.586,328.080 186.872,329.400 186.415 C 334.894 184.513,336.375 183.595,336.803 181.824 C 337.019 180.931,337.394 179.660,337.636 179.000 C 337.879 178.340,338.404 176.810,338.802 175.600 C 339.570 173.271,342.958 166.543,344.609 164.072 C 346.568 161.137,347.009 160.551,349.494 157.562 C 358.793 146.380,367.928 142.033,377.169 144.392 C 383.586 146.031,386.723 148.843,393.756 159.264 C 394.596 160.510,395.625 161.618,396.042 161.727 C 396.540 161.857,396.800 162.281,396.800 162.963 C 396.800 163.802,396.990 164.000,397.800 164.000 C 398.617 164.000,398.806 164.202,398.832 165.100 C 398.849 165.705,398.958 165.961,399.075 165.670 C 399.582 164.401,398.757 160.000,398.012 160.000 C 397.367 160.000,397.272 159.522,397.137 155.572 C 397.000 151.581,396.899 151.077,396.108 150.472 C 395.378 149.912,395.212 149.332,395.116 147.000 C 395.010 144.442,394.922 144.189,394.100 144.072 C 393.258 143.953,393.200 143.751,393.200 140.946 C 393.200 137.798,392.765 136.400,391.786 136.400 C 391.359 136.400,391.200 135.917,391.200 134.626 C 391.200 132.440,390.613 130.800,389.831 130.800 C 389.402 130.800,389.209 130.228,389.121 128.700 C 389.016 126.871,388.884 126.584,388.100 126.472 C 387.266 126.354,387.200 126.142,387.200 123.572 C 387.200 120.882,387.170 120.800,386.200 120.800 C 385.267 120.800,385.200 120.667,385.200 118.800 C 385.200 116.933,385.133 116.800,384.200 116.800 C 383.267 116.800,383.200 116.667,383.200 114.800 C 383.200 112.933,383.133 112.800,382.200 112.800 C 381.267 112.800,381.200 112.667,381.200 110.800 C 381.200 109.113,381.083 108.800,380.452 108.800 C 379.855 108.800,379.649 108.393,379.438 106.800 C 379.221 105.168,379.028 104.800,378.386 104.800 C 377.735 104.800,377.600 104.524,377.600 103.190 C 377.600 101.841,377.438 101.519,376.600 101.200 C 375.846 100.913,375.600 100.530,375.600 99.643 C 375.600 97.945,375.221 97.200,374.357 97.200 C 373.816 97.200,373.600 96.914,373.600 96.200 C 373.600 95.400,373.400 95.200,372.600 95.200 C 371.667 95.200,371.600 95.067,371.600 93.200 C 371.600 91.362,371.523 91.200,370.651 91.200 C 369.850 91.200,369.662 90.945,369.440 89.560 C 369.254 88.395,368.949 87.859,368.389 87.713 C 367.834 87.568,367.600 87.165,367.600 86.353 C 367.600 85.390,367.435 85.200,366.600 85.200 C 365.800 85.200,365.600 85.000,365.600 84.200 C 365.600 83.400,365.400 83.200,364.600 83.200 C 363.681 83.200,363.600 83.053,363.600 81.400 C 363.600 79.747,363.519 79.600,362.600 79.600 C 361.808 79.600,361.600 79.398,361.600 78.628 C 361.600 77.924,361.351 77.620,360.700 77.528 C 360.122 77.446,359.754 77.078,359.672 76.500 C 359.590 75.922,359.268 75.600,358.772 75.600 C 358.198 75.600,357.999 75.318,357.995 74.500 C 357.985 72.644,357.549 71.600,356.781 71.600 C 356.333 71.600,356.007 71.256,355.928 70.700 C 355.847 70.130,355.479 69.754,354.925 69.675 C 354.379 69.598,354.002 69.221,353.925 68.675 C 353.846 68.121,353.470 67.753,352.900 67.672 C 352.249 67.580,352.000 67.276,352.000 66.572 C 352.000 65.802,351.792 65.600,351.000 65.600 C 350.200 65.600,350.000 65.400,350.000 64.600 C 350.000 63.808,349.798 63.600,349.028 63.600 C 348.324 63.600,348.020 63.351,347.928 62.700 C 347.846 62.122,347.478 61.754,346.900 61.672 C 346.322 61.590,346.000 61.268,346.000 60.772 C 346.000 60.215,345.721 60.000,345.000 60.000 C 344.200 60.000,344.000 59.800,344.000 59.000 C 344.000 58.200,343.800 58.000,343.000 58.000 C 342.200 58.000,342.000 57.800,342.000 57.000 C 342.000 56.200,341.800 56.000,341.000 56.000 C 340.200 56.000,340.000 55.800,340.000 55.000 C 340.000 54.279,339.785 54.000,339.228 54.000 C 338.732 54.000,338.410 53.678,338.328 53.100 C 338.246 52.522,337.878 52.154,337.300 52.072 C 336.649 51.980,336.400 51.676,336.400 50.972 C 336.400 50.202,336.192 50.000,335.400 50.000 C 334.600 50.000,334.400 49.800,334.400 49.000 C 334.400 48.208,334.198 48.000,333.428 48.000 C 332.724 48.000,332.420 47.751,332.328 47.100 C 332.247 46.530,331.879 46.154,331.325 46.075 C 330.779 45.998,330.402 45.621,330.325 45.075 C 330.246 44.521,329.870 44.153,329.300 44.072 C 328.744 43.993,328.400 43.667,328.400 43.219 C 328.400 42.451,327.356 42.015,325.500 42.005 C 324.682 42.001,324.400 41.802,324.400 41.228 C 324.400 40.732,324.078 40.410,323.500 40.328 C 322.922 40.246,322.554 39.878,322.472 39.300 C 322.380 38.649,322.076 38.400,321.372 38.400 C 320.602 38.400,320.400 38.192,320.400 37.400 C 320.400 36.481,320.253 36.400,318.600 36.400 C 316.947 36.400,316.800 36.319,316.800 35.400 C 316.800 34.600,316.600 34.400,315.800 34.400 C 315.000 34.400,314.800 34.200,314.800 33.400 C 314.800 32.565,314.610 32.400,313.647 32.400 C 312.835 32.400,312.432 32.166,312.287 31.611 C 312.141 31.051,311.605 30.746,310.440 30.560 C 309.055 30.338,308.800 30.150,308.800 29.349 C 308.800 28.477,308.638 28.400,306.800 28.400 C 304.933 28.400,304.800 28.333,304.800 27.400 C 304.800 26.600,304.600 26.400,303.800 26.400 C 303.086 26.400,302.800 26.184,302.800 25.643 C 302.800 24.779,302.055 24.400,300.357 24.400 C 299.470 24.400,299.087 24.154,298.800 23.400 C 298.481 22.562,298.159 22.400,296.810 22.400 C 295.476 22.400,295.200 22.265,295.200 21.614 C 295.200 20.972,294.832 20.779,293.200 20.562 C 291.607 20.351,291.200 20.145,291.200 19.548 C 291.200 18.917,290.887 18.800,289.200 18.800 C 287.333 18.800,287.200 18.733,287.200 17.800 C 287.200 16.867,287.067 16.800,285.200 16.800 C 283.333 16.800,283.200 16.733,283.200 15.800 C 283.200 14.867,283.067 14.800,281.200 14.800 C 279.333 14.800,279.200 14.733,279.200 13.800 C 279.200 12.830,279.118 12.800,276.428 12.800 C 273.858 12.800,273.646 12.734,273.528 11.900 C 273.416 11.116,273.129 10.984,271.300 10.879 C 269.772 10.791,269.200 10.598,269.200 10.169 C 269.200 9.387,267.560 8.800,265.374 8.800 C 264.083 8.800,263.600 8.641,263.600 8.214 C 263.600 7.235,262.202 6.800,259.054 6.800 C 256.249 6.800,256.047 6.742,255.928 5.900 C 255.811 5.078,255.558 4.990,253.000 4.884 C 250.668 4.788,250.088 4.622,249.528 3.892 C 248.923 3.101,248.419 3.000,244.428 2.863 C 240.532 2.730,240.000 2.627,240.000 2.010 C 240.000 1.132,237.897 0.800,232.344 0.800 C 229.981 0.800,228.400 0.640,228.400 0.400 C 228.400 0.137,218.667 0.000,200.000 0.000 C 181.333 0.000,171.600 0.137,171.600 0.400 " stroke="none" fill="#fbfbfb" fill-rule="evenodd"></path><path id="path3" d="M95.967 82.958 C 95.875 83.045,93.460 83.327,90.600 83.585 C 80.226 84.520,66.414 89.509,57.586 95.511 C 57.028 95.890,55.971 96.560,55.236 97.000 C 49.246 100.587,38.969 111.150,34.222 118.600 C 33.380 119.920,32.389 121.450,32.019 122.000 C 30.969 123.560,27.200 131.170,27.200 131.730 C 27.200 132.005,26.834 132.944,26.386 133.815 C 25.938 134.687,25.372 136.210,25.127 137.200 C 24.883 138.190,24.454 139.458,24.174 140.017 C 23.894 140.576,23.464 142.196,23.219 143.617 C 22.973 145.038,22.467 147.370,22.095 148.800 C 21.079 152.701,21.092 171.391,22.113 175.400 C 22.506 176.940,23.075 179.370,23.378 180.800 C 24.169 184.528,25.853 190.013,26.364 190.524 C 26.604 190.764,26.800 191.253,26.800 191.610 C 26.800 192.216,30.461 199.728,32.220 202.731 C 33.499 204.914,35.365 207.796,35.904 208.418 C 36.181 208.738,37.164 209.990,38.090 211.200 C 39.809 213.448,43.729 217.696,46.607 220.430 C 49.638 223.309,57.701 229.354,59.342 229.978 C 59.881 230.183,60.442 230.545,60.589 230.782 C 61.567 232.364,77.136 238.583,82.600 239.574 C 87.344 240.435,89.415 240.958,90.300 241.520 L 91.200 242.092 91.200 281.156 C 91.200 322.625,91.290 324.949,93.094 330.000 C 97.972 343.662,109.017 353.207,122.600 355.499 C 127.596 356.343,147.265 356.443,153.200 355.656 C 159.166 354.864,168.697 351.871,170.831 350.119 C 171.179 349.833,171.647 349.600,171.872 349.600 C 172.561 349.600,178.447 345.571,181.200 343.215 C 184.796 340.138,190.800 333.473,190.800 332.558 C 190.800 332.390,191.145 331.880,191.568 331.426 C 192.570 330.347,196.800 322.110,196.800 321.235 C 196.800 320.864,196.992 320.368,197.227 320.133 C 200.985 316.375,200.985 287.625,197.227 283.867 C 196.992 283.632,196.797 283.161,196.793 282.820 C 196.789 282.479,196.204 280.940,195.493 279.399 C 191.463 270.668,185.947 264.069,176.000 256.080 C 169.824 251.120,161.834 246.072,153.755 242.025 C 151.970 241.131,150.364 240.400,150.186 240.400 C 150.008 240.400,149.579 240.155,149.231 239.857 C 148.884 239.558,148.060 239.122,147.400 238.888 C 146.740 238.654,144.670 237.811,142.800 237.015 C 138.780 235.303,131.480 232.801,130.494 232.798 C 130.112 232.796,129.276 232.522,128.636 232.188 C 127.995 231.854,125.788 231.310,123.732 230.979 C 121.675 230.648,119.541 230.206,118.990 229.996 C 117.779 229.536,110.360 228.801,106.919 228.800 L 104.438 228.800 104.021 227.300 C 103.496 225.409,103.476 200.426,103.994 193.763 C 104.763 183.881,109.693 176.358,118.000 172.389 C 123.147 169.929,126.625 169.600,147.450 169.600 L 165.946 169.600 166.719 170.700 C 167.308 171.538,167.603 173.041,167.955 177.000 C 168.431 182.339,170.050 192.000,171.006 195.200 C 171.301 196.190,171.825 198.222,172.170 199.716 C 172.514 201.210,173.043 202.920,173.344 203.516 C 173.646 204.112,174.018 205.288,174.170 206.128 C 174.453 207.689,176.261 212.475,177.376 214.612 C 177.716 215.266,177.996 216.051,177.998 216.359 C 178.001 217.114,181.584 224.411,184.569 229.742 C 185.906 232.130,187.372 234.750,187.826 235.565 C 189.648 238.832,195.979 247.585,200.142 252.594 C 202.701 255.673,214.317 267.174,217.002 269.287 C 218.321 270.325,220.840 272.306,222.600 273.689 C 224.360 275.072,227.420 277.264,229.400 278.561 C 231.380 279.858,233.492 281.256,234.094 281.667 C 234.696 282.079,235.596 282.604,236.094 282.836 C 236.592 283.067,237.900 283.778,239.000 284.417 C 244.727 287.743,258.536 293.769,262.295 294.581 C 263.008 294.736,263.696 295.031,263.824 295.238 C 263.952 295.446,264.941 296.063,266.021 296.611 C 270.330 298.794,275.128 304.789,276.737 310.000 C 278.827 316.768,276.882 328.605,272.933 333.152 C 264.145 343.271,262.824 343.598,230.665 343.607 C 201.273 343.616,200.345 343.749,199.163 348.138 C 198.305 351.323,199.516 354.296,202.179 355.548 C 206.869 357.753,260.987 356.561,264.686 354.172 C 265.173 353.858,265.823 353.600,266.130 353.600 C 266.917 353.600,270.908 351.450,274.149 349.279 C 279.025 346.013,285.172 338.815,286.655 334.635 C 286.961 333.774,287.364 332.874,287.552 332.635 C 290.194 329.265,291.341 313.560,289.405 307.258 C 287.959 302.553,286.115 298.858,283.412 295.250 C 282.463 293.982,276.796 288.262,275.891 287.657 C 275.350 287.296,274.195 286.522,273.323 285.939 C 271.521 284.732,266.817 282.609,262.400 281.010 C 260.750 280.413,258.482 279.491,257.360 278.962 C 256.238 278.433,255.158 278.003,254.960 278.007 C 253.277 278.039,233.724 266.552,230.000 263.343 C 229.670 263.059,227.420 261.173,225.000 259.152 C 216.935 252.417,207.490 242.215,203.011 235.400 C 202.143 234.080,201.288 232.820,201.111 232.600 C 198.973 229.946,190.436 214.141,190.411 212.789 C 190.405 212.453,190.154 211.823,189.854 211.389 C 189.554 210.955,189.175 210.150,189.013 209.600 C 188.850 209.050,188.311 207.610,187.814 206.400 C 186.962 204.325,185.215 198.911,183.812 194.000 C 183.268 192.097,182.559 188.612,181.207 181.191 C 180.541 177.538,180.287 171.358,180.767 170.462 L 181.228 169.600 216.994 169.600 C 256.691 169.600,258.141 169.685,263.255 172.314 C 274.886 178.294,277.453 184.080,277.665 204.800 C 277.802 218.055,277.814 218.221,278.777 220.183 C 281.027 224.762,284.973 227.535,289.703 227.862 C 292.638 228.065,293.237 227.940,298.400 226.040 C 304.480 223.802,307.615 222.678,309.773 221.963 C 311.078 221.531,312.338 221.024,312.573 220.838 C 312.808 220.651,313.900 220.215,315.000 219.868 C 317.890 218.956,322.125 217.434,325.800 215.988 C 327.560 215.295,329.900 214.448,331.000 214.106 C 332.100 213.764,333.360 213.258,333.800 212.981 C 334.240 212.705,335.230 212.353,336.000 212.200 C 336.770 212.047,338.120 211.594,339.000 211.194 C 339.880 210.793,341.410 210.196,342.400 209.866 C 346.190 208.605,349.045 207.564,350.200 207.023 C 350.860 206.714,351.936 206.328,352.590 206.165 C 358.967 204.574,360.843 202.485,361.262 196.509 C 361.800 188.825,364.605 180.783,368.389 176.073 C 370.788 173.088,371.225 173.233,374.583 178.119 C 375.823 179.924,377.815 182.750,379.008 184.400 C 380.202 186.050,381.478 187.940,381.845 188.600 C 382.211 189.260,383.181 190.610,384.000 191.600 C 384.819 192.590,385.789 193.940,386.155 194.600 C 386.522 195.260,387.800 197.150,388.995 198.800 C 390.191 200.450,392.031 203.035,393.084 204.543 C 394.138 206.052,395.406 207.852,395.901 208.543 C 396.397 209.235,397.254 210.475,397.806 211.300 C 398.358 212.125,399.078 212.800,399.405 212.800 C 400.195 212.800,400.193 210.832,399.403 210.244 C 399.075 210.000,397.547 208.000,396.007 205.800 C 390.379 197.757,389.512 196.523,386.584 192.400 C 384.943 190.090,382.796 187.030,381.812 185.600 C 380.828 184.170,379.705 182.550,379.317 182.000 C 378.930 181.450,377.280 179.110,375.651 176.800 C 371.573 171.015,370.991 170.782,368.199 173.823 C 363.450 178.996,360.285 186.990,359.699 195.291 C 359.179 202.660,362.013 200.906,334.200 211.068 C 330.900 212.274,326.310 213.955,324.000 214.804 C 287.498 228.221,288.658 227.971,283.456 223.524 C 279.809 220.406,279.836 220.539,279.562 204.800 C 279.293 189.367,279.209 188.796,276.327 182.897 C 273.000 176.087,266.075 170.661,258.350 168.809 C 255.120 168.034,253.665 168.006,217.754 168.003 L 180.508 168.000 179.412 168.862 C 176.406 171.227,181.331 195.622,188.076 211.779 C 196.734 232.517,214.003 254.531,230.156 265.421 C 230.792 265.849,231.806 266.560,232.410 267.000 C 233.498 267.794,236.911 270.086,239.600 271.829 C 241.805 273.258,250.832 278.167,252.600 278.898 C 253.480 279.262,255.550 280.121,257.200 280.807 C 258.850 281.493,261.910 282.695,264.000 283.477 C 280.754 289.748,289.433 302.160,288.682 318.776 C 287.917 335.687,278.248 348.208,262.095 353.204 C 257.736 354.553,250.215 354.869,225.820 354.729 L 203.252 354.600 202.069 353.467 C 199.983 351.467,200.008 348.509,202.127 346.800 L 203.367 345.800 229.784 345.585 C 259.225 345.346,257.902 345.467,264.200 342.442 C 279.528 335.081,284.442 314.523,274.009 301.411 C 270.438 296.923,266.859 294.537,259.600 291.802 C 250.283 288.292,240.176 283.580,235.939 280.769 C 235.136 280.236,233.181 278.990,231.596 278.000 C 230.011 277.010,227.248 275.067,225.457 273.683 C 223.666 272.298,221.570 270.746,220.800 270.235 C 217.359 267.947,206.895 257.822,201.956 252.000 C 200.556 250.350,199.318 248.910,199.205 248.800 C 199.092 248.690,197.907 247.160,196.571 245.400 C 181.642 225.735,171.825 200.364,169.568 175.613 C 169.038 169.793,168.774 168.922,167.381 168.393 C 165.505 167.680,127.449 167.887,123.743 168.631 C 114.256 170.534,106.764 177.320,103.273 187.172 L 102.200 190.200 102.079 209.454 L 101.958 228.709 102.955 229.493 C 103.746 230.115,104.863 230.332,108.384 230.546 C 134.053 232.105,167.203 247.516,184.382 265.878 C 200.901 283.534,203.315 310.757,190.121 330.608 C 189.284 331.866,188.313 333.326,187.962 333.853 C 186.129 336.606,181.217 341.244,175.529 345.594 C 172.100 348.216,163.244 351.818,156.200 353.456 C 151.523 354.543,125.252 354.573,121.055 353.495 C 107.444 350.001,97.482 340.196,93.931 326.800 C 93.031 323.406,93.030 323.333,92.815 282.200 C 92.697 259.540,92.443 240.757,92.251 240.459 C 91.742 239.670,89.711 238.928,87.200 238.613 C 69.679 236.419,50.163 224.441,38.068 208.458 C 28.270 195.510,23.025 179.452,23.024 162.400 C 23.022 103.959,85.202 66.188,136.400 93.530 C 139.150 94.998,141.556 96.267,141.747 96.349 C 142.123 96.510,146.332 99.556,149.122 101.686 C 163.607 112.741,175.676 134.650,177.390 153.000 C 177.941 158.891,174.300 158.400,217.416 158.400 C 261.684 158.400,263.288 158.588,272.078 164.808 C 273.025 165.478,274.250 166.333,274.800 166.709 C 284.346 173.227,288.400 183.879,288.400 202.450 C 288.400 218.799,287.964 218.304,298.800 214.282 C 300.890 213.507,305.030 211.979,308.000 210.886 C 310.970 209.794,317.900 207.230,323.400 205.187 C 328.900 203.144,336.906 200.192,341.191 198.626 C 350.298 195.298,350.416 195.196,351.170 190.039 C 352.115 183.578,355.356 175.230,358.414 171.382 C 359.066 170.561,359.600 169.744,359.600 169.566 C 359.600 167.640,370.001 159.440,372.332 159.528 C 375.119 159.633,375.594 160.169,384.971 173.800 C 387.100 176.894,389.323 180.070,391.691 183.400 C 392.317 184.280,393.265 185.630,393.797 186.400 C 399.098 194.062,400.000 194.939,400.000 192.429 C 400.000 191.629,399.800 191.200,399.427 191.200 C 399.112 191.200,398.745 190.856,398.611 190.435 C 398.379 189.703,396.746 187.379,395.425 185.900 C 395.081 185.515,394.800 185.114,394.800 185.008 C 394.800 184.827,392.868 182.026,388.587 176.000 C 387.571 174.570,385.414 171.510,383.792 169.200 C 377.332 159.995,376.374 158.856,374.484 158.135 C 372.348 157.319,369.814 157.812,367.910 159.414 C 367.266 159.956,366.611 160.400,366.454 160.400 C 364.842 160.400,356.203 170.871,353.915 175.600 C 351.472 180.648,349.936 185.621,348.924 191.766 C 348.563 193.957,347.852 194.551,344.183 195.726 C 341.118 196.708,336.769 198.284,335.839 198.751 C 334.959 199.192,331.753 200.337,327.941 201.571 C 326.699 201.973,325.439 202.453,325.141 202.638 C 324.582 202.986,320.754 204.396,317.600 205.417 C 316.610 205.737,315.440 206.175,315.000 206.390 C 313.971 206.894,309.125 208.690,306.800 209.430 C 305.810 209.746,304.460 210.261,303.800 210.576 C 303.140 210.890,301.790 211.415,300.800 211.740 C 297.159 212.939,294.168 214.030,292.940 214.607 C 290.342 215.828,290.468 216.439,290.255 201.600 C 290.050 187.284,289.566 184.828,285.326 176.600 C 284.760 175.500,284.077 174.420,283.809 174.200 C 283.542 173.980,283.032 173.260,282.676 172.600 C 279.757 167.186,269.032 159.871,261.600 158.226 C 260.170 157.910,258.280 157.463,257.400 157.235 C 256.350 156.962,242.989 156.816,218.519 156.810 C 192.870 156.803,180.944 156.666,180.297 156.371 C 179.431 155.977,179.318 155.567,178.886 151.241 C 178.627 148.656,178.147 145.654,177.818 144.570 C 177.489 143.487,176.961 141.610,176.644 140.400 C 175.964 137.802,174.623 133.888,173.834 132.200 C 171.146 126.446,169.447 123.094,168.361 121.400 C 167.657 120.300,166.616 118.680,166.048 117.800 C 160.569 109.301,148.066 97.565,140.200 93.537 C 130.929 88.790,129.623 88.170,128.200 87.841 C 127.540 87.688,126.100 87.230,125.000 86.823 C 118.171 84.296,97.462 81.540,95.967 82.958 M91.200 94.044 C 90.210 94.241,87.870 94.701,86.000 95.067 C 42.636 103.552,19.171 152.047,38.808 192.600 C 40.601 196.305,43.926 201.679,45.508 203.434 C 45.889 203.856,46.705 204.877,47.323 205.704 C 49.928 209.190,56.977 215.567,61.800 218.799 C 62.900 219.537,64.265 220.451,64.833 220.832 C 70.646 224.730,84.658 229.600,90.058 229.600 C 92.630 229.600,92.574 230.030,92.827 208.200 C 93.100 184.611,93.672 181.813,99.906 173.600 C 109.584 160.849,116.140 158.809,147.456 158.803 C 170.822 158.799,169.568 159.428,167.402 148.812 C 161.747 121.084,140.034 99.822,112.000 94.562 C 106.651 93.558,95.088 93.270,91.200 94.044 M109.469 95.995 C 114.628 96.722,119.825 98.044,123.060 99.451 C 123.754 99.753,124.459 100.000,124.629 100.000 C 124.798 100.000,126.031 100.518,127.368 101.150 C 128.706 101.783,130.070 102.414,130.400 102.552 C 130.730 102.690,131.900 103.339,133.000 103.993 C 134.100 104.648,135.680 105.553,136.512 106.006 C 138.203 106.926,138.031 106.795,143.039 110.946 C 146.710 113.988,150.229 117.551,152.281 120.305 C 152.894 121.127,153.621 121.944,153.898 122.120 C 154.174 122.296,154.400 122.679,154.400 122.971 C 154.400 123.263,154.683 123.737,155.029 124.024 C 155.375 124.311,156.050 125.252,156.529 126.113 C 157.008 126.975,157.885 128.517,158.477 129.540 C 159.070 130.563,159.675 131.670,159.822 132.000 C 159.970 132.330,160.587 133.680,161.194 135.000 C 161.802 136.320,162.525 138.120,162.801 139.000 C 163.078 139.880,163.441 140.780,163.609 141.000 C 163.776 141.220,164.124 142.480,164.382 143.800 C 164.641 145.120,165.125 147.057,165.459 148.104 C 165.794 149.151,166.097 151.491,166.134 153.304 L 166.200 156.600 145.600 156.832 C 123.921 157.077,120.443 157.375,116.200 159.355 C 115.540 159.662,114.370 160.147,113.600 160.430 C 112.830 160.714,111.771 161.273,111.246 161.673 C 110.721 162.073,110.108 162.400,109.882 162.400 C 108.650 162.400,101.457 168.753,98.838 172.155 C 91.960 181.090,90.800 186.617,90.800 210.448 C 90.800 229.823,91.267 228.292,85.699 227.173 C 69.367 223.893,53.784 213.279,44.631 199.199 C 43.988 198.209,43.053 196.770,42.553 196.000 C 42.053 195.230,41.455 194.150,41.223 193.600 C 40.992 193.050,40.630 192.330,40.419 192.000 C 38.362 188.778,35.029 178.244,33.964 171.600 C 33.212 166.907,33.652 150.735,34.571 149.246 C 34.701 149.036,35.152 147.275,35.573 145.332 C 36.332 141.833,37.480 138.399,39.140 134.667 C 39.613 133.604,40.000 132.569,40.000 132.367 C 40.000 132.165,40.153 132.000,40.339 132.000 C 40.526 132.000,41.015 131.235,41.426 130.300 C 41.837 129.365,42.466 128.150,42.824 127.600 C 43.182 127.050,43.996 125.790,44.633 124.800 C 57.872 104.227,84.360 92.459,109.469 95.995 M370.939 218.952 C 370.025 219.249,368.279 220.282,367.057 221.246 C 364.964 222.899,364.038 223.582,360.605 226.000 C 359.824 226.550,357.704 228.127,355.893 229.504 C 354.082 230.880,351.520 232.755,350.200 233.669 C 348.880 234.584,346.868 236.067,345.728 236.966 C 344.589 237.865,342.274 239.590,340.585 240.800 C 338.896 242.010,337.173 243.315,336.757 243.700 C 336.341 244.085,335.896 244.400,335.768 244.400 C 335.641 244.400,334.336 245.310,332.868 246.422 C 328.983 249.365,324.206 252.909,323.191 253.600 C 322.706 253.930,321.706 254.650,320.969 255.200 C 320.231 255.750,318.766 256.820,317.714 257.577 C 316.661 258.334,315.620 259.145,315.400 259.379 C 315.180 259.612,313.920 260.520,312.600 261.395 C 311.280 262.270,309.898 263.260,309.529 263.593 C 309.161 263.927,308.261 264.616,307.529 265.124 C 306.361 265.936,299.661 270.877,292.683 276.074 C 288.503 279.187,287.974 279.683,287.182 281.234 C 285.756 284.031,286.703 287.131,289.565 289.024 C 292.278 290.820,294.635 290.378,298.600 287.330 C 299.260 286.822,300.160 286.143,300.600 285.821 C 303.307 283.836,307.620 280.697,310.243 278.800 C 311.917 277.590,313.627 276.285,314.043 275.900 C 314.459 275.515,314.907 275.200,315.037 275.200 C 315.167 275.200,316.506 274.255,318.011 273.100 C 319.516 271.945,322.128 270.010,323.815 268.800 C 325.503 267.590,327.214 266.330,327.619 266.000 C 328.023 265.670,329.482 264.590,330.861 263.600 C 332.240 262.610,334.219 261.170,335.258 260.400 C 336.298 259.630,337.648 258.640,338.257 258.200 C 338.867 257.760,340.582 256.500,342.070 255.400 C 343.557 254.300,346.149 252.410,347.829 251.200 C 349.509 249.990,351.226 248.730,351.644 248.400 C 352.062 248.070,353.708 246.849,355.302 245.687 C 356.896 244.525,359.550 242.581,361.200 241.366 C 362.850 240.152,364.623 238.853,365.140 238.479 C 365.657 238.106,366.684 237.350,367.423 236.800 C 368.162 236.250,369.417 235.350,370.211 234.800 C 371.005 234.250,372.185 233.377,372.833 232.860 C 374.189 231.778,375.683 231.804,380.000 232.988 C 382.222 233.597,383.776 233.674,390.688 233.515 C 396.299 233.387,398.832 233.463,398.957 233.765 C 399.056 234.004,399.151 233.504,399.168 232.653 L 399.200 231.107 396.500 231.453 C 391.474 232.099,382.147 231.827,378.611 230.932 C 374.436 229.875,373.692 230.081,368.927 233.619 C 366.767 235.222,364.280 237.055,363.400 237.692 C 362.520 238.328,359.812 240.323,357.383 242.125 C 354.954 243.926,351.843 246.210,350.470 247.200 C 349.098 248.190,346.225 250.296,344.087 251.880 C 341.949 253.464,339.612 255.174,338.893 255.680 C 338.174 256.186,335.887 257.860,333.810 259.400 C 331.733 260.940,328.665 263.190,326.993 264.400 C 325.321 265.610,322.261 267.860,320.193 269.400 C 318.125 270.940,315.060 273.190,313.382 274.400 C 311.704 275.610,310.031 276.824,309.665 277.098 C 294.286 288.599,293.365 289.127,290.908 287.856 C 286.739 285.700,287.571 281.595,292.914 277.960 C 294.281 277.030,296.332 275.533,297.472 274.634 C 298.611 273.735,300.914 272.010,302.588 270.800 C 304.263 269.590,307.333 267.340,309.410 265.800 C 311.487 264.260,314.899 261.740,316.993 260.200 C 319.086 258.660,322.140 256.410,323.778 255.200 C 328.661 251.594,336.267 246.007,340.775 242.714 C 343.099 241.017,346.440 238.569,348.200 237.274 C 349.960 235.978,353.560 233.335,356.200 231.400 C 358.840 229.465,361.961 227.143,363.136 226.241 C 371.717 219.648,372.360 219.442,378.399 221.366 C 385.208 223.536,400.000 222.974,400.000 220.546 C 400.000 219.394,399.364 219.346,396.373 220.274 C 392.652 221.428,383.922 221.208,379.400 219.846 C 374.828 218.470,373.012 218.278,370.939 218.952 M103.800 240.062 C 101.932 241.084,102.000 239.517,102.007 281.376 C 102.015 325.187,101.949 323.952,104.579 329.491 C 107.275 335.168,111.554 339.555,117.143 342.373 C 126.329 347.004,150.871 346.878,162.314 342.141 C 165.711 340.735,166.255 340.452,169.400 338.456 C 189.761 325.535,195.577 297.918,182.113 278.090 C 170.073 260.359,135.727 242.092,110.498 240.002 C 104.737 239.525,104.783 239.524,103.800 240.062 M113.600 241.993 C 121.989 243.474,132.801 246.421,137.000 248.372 C 137.440 248.577,139.330 249.404,141.200 250.211 C 148.618 253.410,154.194 256.412,160.400 260.543 C 176.637 271.354,183.624 279.971,186.611 292.871 C 188.682 301.814,187.129 314.473,183.186 320.800 C 182.980 321.130,182.531 322.028,182.187 322.795 C 181.843 323.562,181.233 324.552,180.832 324.995 C 180.430 325.438,180.034 326.013,179.951 326.273 C 179.397 328.011,171.621 335.307,168.200 337.299 C 159.592 342.312,155.779 343.177,140.940 343.484 C 125.201 343.810,120.796 343.070,114.936 339.115 C 111.701 336.931,106.400 331.018,106.400 329.592 C 106.400 329.389,105.944 328.227,105.387 327.009 C 104.564 325.209,104.299 323.766,103.971 319.297 C 103.497 312.825,103.635 242.855,104.124 242.100 C 104.520 241.488,110.366 241.422,113.600 241.993 " stroke="none" fill="#5f843e" fill-rule="evenodd"></path><path id="path4" d="M91.600 69.422 C 89.730 69.717,86.400 70.237,84.200 70.576 C 76.891 71.701,70.292 73.736,62.499 77.267 C 61.123 77.890,59.930 78.400,59.848 78.400 C 59.594 78.400,53.093 82.009,51.500 83.035 C 50.675 83.566,49.235 84.494,48.300 85.097 C 46.457 86.287,41.889 89.680,40.600 90.817 C 38.078 93.042,30.983 100.221,29.312 102.239 C 25.737 106.554,23.307 109.833,23.025 110.722 C 22.872 111.205,22.582 111.600,22.381 111.600 C 22.180 111.600,21.666 112.287,21.237 113.127 C 20.809 113.966,20.175 114.889,19.829 115.176 C 19.483 115.463,19.200 116.037,19.200 116.452 C 19.200 116.866,18.750 117.597,18.200 118.075 C 17.650 118.553,17.197 119.317,17.194 119.772 C 17.186 120.805,16.801 121.384,15.900 121.717 C 15.465 121.877,15.198 122.396,15.195 123.087 C 15.185 124.984,14.752 126.000,13.953 126.000 C 13.156 126.000,13.077 126.235,13.189 128.291 C 13.300 130.327,12.871 131.200,11.759 131.200 C 10.808 131.200,10.782 131.271,11.035 133.179 C 11.363 135.652,11.031 137.046,10.052 137.302 C 9.382 137.478,9.294 137.908,9.286 141.050 C 9.280 143.313,9.049 145.180,8.648 146.200 C 7.812 148.327,7.241 161.073,7.634 168.822 C 8.423 184.352,15.607 204.549,24.489 216.200 C 34.377 229.173,43.080 236.824,56.498 244.343 C 59.302 245.914,61.709 247.200,61.848 247.200 C 62.097 247.200,65.483 248.595,68.617 249.989 C 69.506 250.385,71.255 250.921,72.504 251.180 C 73.753 251.439,75.186 251.984,75.688 252.390 L 76.600 253.129 76.833 286.864 C 77.034 315.808,77.164 321.253,77.751 325.194 C 78.561 330.628,81.017 338.409,82.804 341.200 C 83.015 341.530,83.434 342.340,83.735 343.000 C 86.215 348.444,95.072 357.953,100.873 361.400 C 109.587 366.577,114.185 368.229,123.068 369.373 C 131.442 370.452,252.096 370.303,259.674 369.205 C 276.403 366.781,290.390 356.729,298.471 341.322 C 299.532 339.299,300.401 337.409,300.402 337.122 C 300.404 336.835,300.686 336.060,301.030 335.401 C 301.374 334.741,301.895 333.211,302.188 332.001 C 302.481 330.790,303.021 328.720,303.390 327.400 C 303.910 325.536,304.099 322.679,304.237 314.600 C 304.454 301.886,304.159 303.045,307.851 300.400 C 309.540 299.190,311.356 297.840,311.885 297.400 C 312.415 296.960,313.333 296.194,313.924 295.697 C 315.041 294.759,319.795 291.107,329.800 283.498 C 330.020 283.331,331.397 282.250,332.861 281.097 C 338.056 277.002,340.253 275.301,344.600 272.005 C 347.020 270.171,350.080 267.806,351.400 266.750 C 354.619 264.176,360.644 259.493,362.510 258.115 C 363.341 257.502,364.421 256.684,364.910 256.298 C 367.070 254.595,375.362 248.152,375.991 247.690 C 376.539 247.286,378.729 247.251,386.442 247.521 C 396.711 247.880,396.561 247.894,396.971 246.536 C 397.230 245.677,397.198 245.672,390.716 245.633 C 387.132 245.612,382.490 245.485,380.400 245.351 L 376.600 245.107 374.000 247.024 C 372.570 248.079,370.377 249.765,369.126 250.771 C 367.875 251.777,365.715 253.454,364.326 254.498 C 361.424 256.680,352.421 263.633,350.515 265.166 C 349.808 265.735,348.098 267.062,346.715 268.116 C 345.332 269.169,341.950 271.788,339.200 273.934 C 336.450 276.080,332.940 278.808,331.400 279.996 C 329.860 281.183,327.520 282.988,326.200 284.006 C 320.262 288.584,316.904 291.181,313.868 293.541 C 312.071 294.939,309.046 297.233,307.147 298.639 C 302.352 302.189,302.403 302.041,302.388 312.460 C 302.357 333.592,296.248 347.535,282.600 357.622 C 281.280 358.597,280.110 359.506,280.000 359.642 C 278.047 362.048,266.458 366.330,259.000 367.402 C 252.134 368.388,124.620 368.089,119.692 367.075 C 98.860 362.790,83.099 346.558,79.811 326.000 C 79.302 322.817,79.203 316.673,79.202 288.160 C 79.200 247.810,79.728 251.425,73.559 249.568 C 68.081 247.920,58.918 243.872,54.400 241.104 C 42.602 233.876,33.381 225.476,26.078 215.306 C 24.935 213.714,24.000 212.291,24.000 212.144 C 24.000 211.996,23.565 211.305,23.032 210.607 C 17.929 203.916,12.111 187.996,10.193 175.474 C 5.193 142.835,20.662 105.991,46.800 88.284 C 53.156 83.978,54.751 83.046,60.600 80.217 C 66.341 77.442,66.267 77.474,69.800 76.232 C 106.602 63.293,147.373 74.814,171.972 105.104 C 175.833 109.857,179.225 115.261,182.328 121.600 C 185.427 127.930,187.094 132.341,188.830 138.800 C 189.685 141.979,190.213 143.219,191.002 143.900 L 192.045 144.800 220.922 144.806 C 256.526 144.814,261.209 145.159,270.053 148.420 C 275.030 150.255,281.436 153.958,284.198 156.597 C 284.660 157.039,285.660 157.956,286.419 158.636 C 295.039 166.355,301.301 179.501,302.216 191.800 C 302.646 197.576,303.206 197.916,308.878 195.845 C 310.925 195.098,316.898 192.929,322.152 191.025 C 338.155 185.227,337.670 185.491,338.649 182.030 C 342.529 168.304,351.397 155.486,361.544 148.937 C 371.003 142.833,381.578 145.174,388.519 154.909 C 391.045 158.452,392.936 161.176,393.400 161.941 C 393.620 162.303,394.475 163.361,395.300 164.291 C 396.125 165.221,396.800 166.166,396.800 166.391 C 396.800 166.616,397.250 166.800,397.800 166.800 C 398.676 166.800,398.800 166.627,398.800 165.400 C 398.800 164.173,398.676 164.000,397.800 164.000 C 396.990 164.000,396.800 163.802,396.800 162.963 C 396.800 162.281,396.540 161.857,396.042 161.727 C 395.625 161.618,394.596 160.510,393.756 159.264 C 386.723 148.843,383.586 146.031,377.169 144.392 C 367.928 142.033,358.793 146.380,349.494 157.562 C 347.009 160.551,346.568 161.137,344.609 164.072 C 342.958 166.543,339.570 173.271,338.802 175.600 C 338.404 176.810,337.879 178.340,337.636 179.000 C 337.394 179.660,337.019 180.931,336.803 181.824 C 336.375 183.595,334.894 184.513,329.400 186.415 C 328.080 186.872,326.010 187.586,324.800 188.003 C 323.590 188.419,321.160 189.324,319.400 190.014 C 317.640 190.703,315.390 191.522,314.400 191.833 C 313.410 192.144,312.240 192.578,311.800 192.798 C 309.868 193.760,304.974 195.113,304.630 194.779 C 304.427 194.582,304.129 192.661,303.969 190.510 C 303.704 186.961,301.961 179.184,301.210 178.200 C 301.042 177.980,300.682 177.080,300.410 176.200 C 299.792 174.203,296.301 167.549,294.870 165.642 C 294.281 164.858,293.530 163.858,293.200 163.421 C 285.910 153.762,274.517 146.771,261.917 144.227 L 256.834 143.200 224.879 143.200 C 194.939 143.200,192.886 143.156,192.328 142.500 C 191.578 141.620,190.987 140.060,190.242 137.000 C 189.226 132.831,187.549 128.281,185.373 123.794 C 184.838 122.691,184.400 121.653,184.400 121.487 C 184.400 120.960,180.343 113.897,178.538 111.281 C 177.582 109.895,176.800 108.655,176.800 108.524 C 176.800 108.393,176.031 107.367,175.091 106.243 C 174.151 105.119,172.853 103.480,172.208 102.600 C 168.719 97.843,159.517 89.651,152.032 84.639 C 143.611 79.000,134.676 75.030,122.800 71.652 C 114.770 69.367,99.047 68.243,91.600 69.422 " stroke="none" fill="#cee4b1" fill-rule="evenodd"></path></g></svg>